<?xml version="1.0" encoding="utf-8"?>
<!-- Generator: Adobe Illustrator 22.1.0, SVG Export Plug-In . SVG Version: 6.00 Build 0)  -->
<svg version="1.1" id="Layer_1" xmlns="http://www.w3.org/2000/svg" xmlns:xlink="http://www.w3.org/1999/xlink" x="0px" y="0px"
	 viewBox="0 0 128 37" style="enable-background:new 0 0 128 37;" xml:space="preserve">
<style type="text/css">
	.st0{enable-background:new    ;}
	.st1{fill:#FFFFFF;}
</style>
<g class="st0">
	<path class="st1" d="M4.8,5.6H0.4V0.8h15.2v4.8h-4.4V30H4.8V5.6z"/>
	<path class="st1" d="M18.2,0.8h13.1v4.4h-6.7v7.2h5.1v4.5h-5.1v8.7h6.7V30H18.2V0.8z"/>
	<path class="st1" d="M33.9,20.7V10.2c0-6,2.1-9.8,8.7-9.8c6.4,0,8.4,3.5,8.4,8.4v2.5h-6.3V8.5c0-1.7,0-3.5-2.1-3.5
		s-2.2,1.8-2.2,3.6v13.7c0,2,0.3,3.6,2.2,3.6c2,0,2.1-1.8,2.1-3.6v-3.1H51v2.5c0,5-1.9,8.7-8.4,8.7C36,30.4,33.9,26.6,33.9,20.7z"/>
	<path class="st1" d="M54.6,0.8h6.4v11.8h4.5V0.8h6.5V30h-6.5V17.3h-4.5V30h-6.4V0.8z"/>
</g>
<g class="st0">
	<path class="st1" d="M77,30V0.8h6c1.3,0,2.5,0.2,3.3,0.6c0.9,0.4,1.6,0.9,2.1,1.6c0.5,0.7,0.8,1.4,1,2.3s0.3,1.8,0.3,2.8
		c0,0.8-0.1,1.6-0.3,2.5s-0.5,1.7-1,2.3c-0.5,0.7-1.2,1.1-2.2,1.4c1.1,0.3,2,0.9,2.6,1.7c0.6,0.8,1,1.7,1.2,2.7
		c0.2,1,0.3,1.9,0.3,2.8c0,1.1-0.1,2.2-0.2,3.2s-0.5,1.9-0.9,2.7c-0.5,0.8-1.1,1.4-2,1.9s-2,0.7-3.4,0.7H77z M79,13.6h4.9
		c1.1,0,1.9-0.3,2.5-0.8s1-1.2,1.2-2c0.2-0.8,0.3-1.7,0.3-2.8c0-1.1-0.1-2.1-0.4-2.9c-0.3-0.9-0.8-1.5-1.5-2s-1.9-0.7-3.4-0.7H79
		V13.6z M79,28.5h4.7c1.9,0,3.2-0.6,3.9-1.7c0.7-1.1,1-2.9,1-5.2c0-1.2-0.1-2.2-0.4-3.2c-0.3-1-0.7-1.7-1.4-2.3
		c-0.7-0.6-1.6-0.9-2.8-0.9h-5V28.5z"/>
	<path class="st1" d="M94.3,30V0.8h1.9V30H94.3z"/>
	<path class="st1" d="M105.5,30.3c-1.4,0-2.4-0.3-3.2-0.9s-1.3-1.5-1.6-2.7c-0.3-1.2-0.5-2.6-0.5-4.4v-5.6c0-1.7,0.1-3.2,0.5-4.4
		c0.3-1.2,0.8-2.1,1.6-2.7c0.8-0.6,1.8-0.9,3.2-0.9c1.4,0,2.5,0.3,3.2,0.9c0.8,0.6,1.3,1.5,1.6,2.6c0.3,1.2,0.4,2.6,0.4,4.4v5.6
		c0,1.7-0.1,3.2-0.4,4.4c-0.3,1.2-0.8,2.1-1.6,2.7C107.9,30,106.9,30.3,105.5,30.3z M105.5,28.9c1,0,1.8-0.3,2.2-0.8
		c0.5-0.5,0.8-1.3,0.9-2.2s0.2-2.1,0.2-3.4v-5.8c0-1.3-0.1-2.5-0.2-3.4s-0.4-1.7-0.9-2.2c-0.5-0.5-1.2-0.8-2.2-0.8s-1.7,0.3-2.2,0.8
		c-0.5,0.5-0.8,1.2-0.9,2.2c-0.1,0.9-0.2,2.1-0.2,3.4v5.8c0,1.3,0.1,2.5,0.2,3.4c0.1,1,0.4,1.7,0.9,2.2
		C103.7,28.6,104.5,28.9,105.5,28.9z"/>
	<path class="st1" d="M119.7,37.1c-1.4,0-2.7-0.1-3.7-0.4c-1-0.3-1.8-0.7-2.3-1.2c-0.5-0.6-0.8-1.2-0.8-2.1c0-0.7,0.2-1.4,0.6-2
		c0.4-0.6,0.8-1.2,1.4-1.7c0.6-0.5,1.1-0.9,1.7-1.2c-0.9-0.2-1.5-0.5-1.9-0.9c-0.4-0.3-0.6-0.8-0.6-1.4c0-0.7,0.2-1.3,0.7-1.9
		c0.5-0.6,1.1-1.2,1.9-1.9c-1-0.7-1.7-1.7-2.1-2.8c-0.4-1.1-0.6-2.3-0.6-3.6c0-1.2,0.2-2.3,0.6-3.4c0.4-1.1,1-2,1.9-2.7
		c0.9-0.7,2-1.1,3.3-1.1c1.3,0,2.3,0.3,3,0.9c0.7,0.6,1.3,1.2,1.6,1.9c0.2-0.5,0.6-0.9,1.2-1.4c0.5-0.5,1.1-0.8,1.7-1l0.5-0.2
		l0.5,1.4c-0.4,0.1-0.8,0.3-1.3,0.5c-0.4,0.2-0.8,0.5-1.2,0.7c-0.4,0.3-0.7,0.6-0.9,0.9c0.2,0.5,0.4,1,0.5,1.8
		c0.1,0.7,0.2,1.3,0.2,1.7c0,1.4-0.2,2.6-0.6,3.7c-0.4,1.1-1,2-1.8,2.6c-0.8,0.6-1.9,1-3.3,1c-0.4,0-0.8,0-1.2-0.1
		c-0.4-0.1-0.8-0.2-1-0.3c-0.5,0.5-0.9,0.9-1.3,1.4s-0.6,1-0.6,1.4c0,0.4,0.1,0.7,0.4,0.9c0.3,0.2,0.7,0.3,1.3,0.5l3.4,0.6
		c1.7,0.3,3,0.8,4,1.5c1,0.7,1.5,1.8,1.5,3.1c0,1.1-0.3,2-0.9,2.6c-0.6,0.7-1.4,1.2-2.4,1.5C122,36.9,120.9,37.1,119.7,37.1z
		 M119.7,35.5c1.4,0,2.6-0.2,3.6-0.7c1-0.5,1.5-1.2,1.5-2.3c0-0.5-0.1-1-0.3-1.4c-0.2-0.4-0.7-0.8-1.3-1.1c-0.6-0.3-1.6-0.6-2.9-0.8
		l-2.3-0.4c-0.4,0.2-0.9,0.6-1.4,0.9c-0.5,0.4-1,0.8-1.3,1.3c-0.4,0.5-0.6,1.1-0.6,1.8c0,0.9,0.4,1.6,1.3,2
		C116.8,35.3,118,35.5,119.7,35.5z M119.8,22c0.9,0,1.6-0.2,2.1-0.6c0.5-0.4,0.9-0.9,1.2-1.5c0.3-0.6,0.4-1.3,0.5-1.9
		c0.1-0.7,0.1-1.3,0.1-1.9c0-0.6-0.1-1.2-0.2-1.8c-0.1-0.7-0.3-1.3-0.6-1.9s-0.7-1.1-1.2-1.5c-0.5-0.4-1.2-0.6-2-0.6
		s-1.5,0.2-2.1,0.6c-0.5,0.4-0.9,0.9-1.2,1.5c-0.3,0.6-0.5,1.3-0.6,1.9c-0.1,0.6-0.2,1.2-0.2,1.7c0,0.6,0,1.2,0.1,1.9
		c0.1,0.7,0.3,1.3,0.6,2c0.3,0.6,0.7,1.1,1.2,1.5C118.2,21.8,119,22,119.8,22z"/>
</g>
</svg>
