<?xml version="1.0" encoding="utf-8"?>
<!-- Generator: Adobe Illustrator 23.0.1, SVG Export Plug-In . SVG Version: 6.00 Build 0)  -->
<svg version="1.1" id="Layer_1" xmlns="http://www.w3.org/2000/svg" xmlns:xlink="http://www.w3.org/1999/xlink" x="0px" y="0px"
	 viewBox="0 0 361 280" style="enable-background:new 0 0 361 280;" xml:space="preserve">
<style type="text/css">
	.st0{fill:#E7ECFA;}
	.st1{fill:#002CA7;}
	.st2{fill:#FE5D89;}
	.st3{fill:#FFFFFF;}
	.st4{fill:#164BCD;}
	.st5{fill:#8AA5F8;}
	.st6{fill:#4F75E2;}
	.st7{fill:#2D5DEA;}
	.st8{fill:#D9E2FF;}
	.st9{fill:#6F0871;}
	.st10{fill:#EEF5FD;}
</style>
<g>
	<g id="Clip" transform="translate(-1052 -986.98)">
		<path id="Rectangle_582" class="st0" d="M1034,1054c0,0,108.9,90,204.7,0c84.3-79.2,237.3,0,237.3,0v332h-442V1054z"/>
		<g id="Vector_Smart_Object" transform="matrix(-1, 0, 0, -1, 1936.486, 771.293)">
			<g id="Group_97">
				<g id="Group_27">
					<path id="Path_14" d="M608.1-240.5c-1.8,2.6-4.9,2.6-7.2,4.6c-1.5,1.3-2.5,3.1-2.8,5.1c-0.3,2.1,0.6,4.1-0.3,6.1
						c-1.2,2.6-4.4,2.9-6.9,2.6c-3.9-0.5-5.9,3.7-9.3,4.7c-5.3,1.6-12.5,0.4-15.8-4.5c-0.9-1.3-1.5-3.7-2.8-4.7
						c-2.1-1.6-5.7-2-7-4.8c-2.9-6.2,2-9.6-0.4-15.9c-1.6-4.2-4.8-4.9-7.6-8.1c-2.9-3.3-3.6-7.3-1.3-11c1-1.6,4.6-4.5,1.9-6.1
						c-0.6-0.3-1.2-0.6-1.9-0.8c-5.3-1.6-10.3-5.5-12.2-10.9c-4.8-13.7,8.3-23.1,20-26.2c9.3-2.5,24.5-2.9,33.1,1.4
						c12.7,6.4,23.2,19.5,21,35.8c-0.5,4-4,7.7-2.9,11.8c0.7,2.7,2.3,5,3.3,7.5c1.1,2.7,1.4,5.7,0.9,8.6
						C609.6-243.5,609-241.9,608.1-240.5z"/>
					<path id="Path_15" class="st1" d="M572.4-334c0,0-1.4-21.3,0-29.5c0.5-2.8,1.6-28.1,5.6-55.9c4.6-32.2,7-66.4,7-66.4
						c3.2-2.4,6.8,0,6.9,0.2c0,0,12.8,148.2,11.9,154.2C600-333,583.7-334.7,572.4-334z"/>
					<path id="Path_16" class="st1" d="M599.7-491.8c-0.6,0-4.3,0-6.3,1.5c-1.6,1.2-1.2,9.5-0.9,11.1c-0.8-0.1-2.3-1.2-3.1-1.4
						c-0.2-0.6-0.3-1.2-0.2-1.9c-1.6-0.2-3.3-0.1-5,0.1c-0.2-3.3-0.7-6.5-1.4-9.7c-0.3-0.8-0.2-1.6,0.2-2.3c1.3-1.5,2.8-1.3,4.4-1.3
						c2.5,0,10.8,0,14.4,0c0.8-0.1,1.4,0.5,1.5,1.2c0,0.1,0,0.2,0,0.3C603.3-493.5,602.7-491.8,599.7-491.8z"/>
					<g id="Group_25">
						<path id="Path_17" class="st2" d="M660-310.2c-0.2,0.7-0.9,0-1.3-0.5c-0.8-0.9-1.8-1.7-2.8-2.3c0.9-0.6,0.8-1.2,2.1-0.8
							C658.5-313.6,660.2-310.7,660-310.2z"/>
						<path id="Path_18" class="st2" d="M664.5-317.9c-0.1,0.2,1.5,0.5,1.2,1.3c0.3,0.2,0.4,0.6,0.4,0.9c0,0.7-0.4,1.2-1,1.5
							c-0.9,0.2-1.8,0.4-2.7,0.6c-0.2,0-3.3,0.6-4.7,0.6c-1.1,0.1-2.3,0-3.4-0.1c-0.3-2-0.5-3.9-0.5-5.9c1.9-0.1,7.9,0.1,8.1,0.1
							C664.3-319.4,664.9-318.6,664.5-317.9z"/>
						<path id="Path_19" class="st2" d="M616.8-303.9c-5.7,8.8-13.7,28.7-17.7,34c-0.7,1-12-7.1-13.3-9.1
							c-3.1-4.7,16.5-27.3,24.8-34.1C613.7-315.6,623.7-314.6,616.8-303.9z"/>
						<path id="Path_20" class="st3" d="M612.6-293.2c-5.4,8.6-10.7,19.6-13.5,23.4c-0.7,1-15.6-5.1-14.8-10.8
							c0.6-3.7,5.1-14.2,13.2-23.3c1.2,0.6,4.7,3,5.9,3.8C606.6-298.1,609.7-295.8,612.6-293.2z"/>
						<path id="Path_21" class="st2" d="M614.8-305.1c-0.5,0-0.9,0-1.4-0.1c-2.2-0.5-4.9-2.5-3.5-6.9c1.5-4.7,31.7-7.3,44.2-7
							c-0.2,1.6,0.9,3.5,1.3,5.9C647.8-313.4,621.9-305.9,614.8-305.1z"/>
					</g>
					<path id="Path_22" class="st4" d="M548-331.4c-0.5-3.3,4.5-73.5,6-84.5c1.3-9.3-3.2-67.2-3.2-67.2c0.1-0.3,3.9-3.1,7.1-1.3
						c0,0,13.2,40.9,17.8,73.1c1.8,12.4,5.2,27.3,7.9,41.5c3.1,16.3,6,32.5,6,32.5C578.3-338,551.7-333,548-331.4z"/>
					<path id="Path_23" class="st3" d="M545.9-325.5c0,0-2.7-13.6-1.3-19.7c0.5-2.3,21.1,0,32.2-1.4s25.8-4.5,29.7-1.1
						c1.7,1.5-1.9,18.8-1.9,18.8L545.9-325.5z"/>
					<path id="Path_24" class="st2" d="M575.7-248.5c0.5-3.1-0.4-11.9-1.5-13.5c2.6-5.8,12-5.8,12.7-2.3c-1.5,3.7,0.1,10.5,0.1,11.1
						C584.6-253.6,576.5-249.1,575.7-248.5z"/>
					<path id="Path_25" class="st2" d="M584.2-237.2c-4.6-0.3-7.4-4.3-7-8.9c0,0,0.3-4.7,0.3-4.7c0.2-3.4,5.9-8.5,8.8-7.6
						c7,2,7.6,15.1,7.3,16.5C592.6-237.9,588.5-236.9,584.2-237.2z"/>
					<path id="Path_26" class="st5" d="M596.6-267.8c-1.5,0.9-9.8,3.4-9.8,3.4s-2-2.5-4.3-2.3c-3.4,0.2-8.4,4.7-8.4,4.7
						s-7.2-2-9.6-2.6c-7.2-1.7-10.3-5.6-12.9-12.8c-0.8-2.2-3.8-29-7.5-55.5c-1.1-7.9,59.2-12.2,62.8-5.8c1.5,2.6-0.7,9.6-4.1,56.9
						C602.6-276.9,602.5-271.2,596.6-267.8z"/>
					<path id="Path_27" class="st2" d="M574.9-247c0.2-1.4,1.1-2.6,2.3-3.2c0.8,1.7,1.4,3.5,2,5.3c-0.6,0.4-1.2,0.6-1.9,0.7
						C576.2-244.3,575-245.8,574.9-247z"/>
					<g id="Group_26">
						<path id="Path_28" class="st2" d="M611.4-333.4c-1.2-0.2-2.4-0.3-3.6-0.2c1.3-0.4,1-1.1,2.3-1.7c0.6-0.1,2.9,0.9,2.8,1.5
							C612.7-332.9,612-333.2,611.4-333.4z"/>
						<path id="Path_29" class="st2" d="M615.8-337.4c-0.2,0.1-3.5,2-5.1,2.7c-1.3,0.6-2.6,1.1-4,1.4c-1.3-1.6-2.4-3.3-3.3-5.1
							c2.2-1,9.1-3.5,9.3-3.6c2.5-1.5,3.6-1.1,3.5-0.2c0,0.2,2-0.2,2,0.6c0.4,0,0.7,0.3,0.8,0.7c0,0.7-0.1,1.3-0.5,1.9
							C617.7-338.5,616.8-337.9,615.8-337.4z"/>
						<path id="Path_30" class="st2" d="M574.4-271.4c-0.3,1.2-13.8-1.4-15.9-2.7c-4.7-3,3.6-31.7,8.3-41.4
							c1.8-3.7,11.3-6.9,9.5,5.8C574.8-299.3,575.8-277.9,574.4-271.4z"/>
						<path id="Path_31" class="st3" d="M555.4-275.6c-1-3.6-0.2-14.4,3.3-26c6.2-0.7,14.1,1.1,18.2,3.4c-1.3,10.1,0,22.9-2.5,26.9
							C571.2-266.2,558-266.4,555.4-275.6z"/>
						<path id="Path_32" class="st2" d="M572.1-309c-2.2,0.5-5.5-0.3-6-4.8c-0.5-5,26.8-20.1,38.3-24.9c0.7,1.9,1.7,3.7,2.8,5.4
							c-7.1,2.8-27.6,20.3-33.8,23.9C573-309.2,572.6-309.1,572.1-309z"/>
					</g>
					<path id="Path_33" class="st1" d="M565.9-491.7c-0.6,0-4.3,0.3-6.2,1.9c-1.5,1.3-0.6,9.6-0.2,11.1c-0.8,0-2.4-1-3.2-1.2
						c-0.2-0.6-0.4-1.2-0.4-1.9c-1.7-0.1-3.3,0.1-4.9,0.4c-0.4-3.2-1.1-6.4-2-9.6c-0.4-0.7-0.3-1.6,0.1-2.3c1.2-1.6,2.7-1.5,4.3-1.6
						c2.5-0.1,10.8-0.7,14.4-0.9c0.8-0.1,1.5,0.4,1.6,1.1c0,0.1,0,0.2,0,0.3C569.4-493.6,568.9-491.9,565.9-491.7z"/>
				</g>
				<g id="Group_44">
					<g id="Group_32">
						<path id="Path_34" class="st1" d="M864.2-434.4c-3.7,1.5-7-1.8-8.8-5c-1.4-2.4-2.6-5.1-5.1-6.8c-0.9-0.6-2.1-1-3.2-1
							c-4.2,0.1-5.3,4.8-4,8c1.1,2.7,3.5,4.6,5.5,6.7c5.4,5.4,9.4,12.2,11.5,19.6c1.3,4.6,1.8,10-1.8,13.8c-1.8,2-4.7,2.7-7.2,1.8
							c-3.1-1.2-3.7-4.2-4.1-6.9c-0.4-2.3-0.9-4.7-2.9-6.1c-1.2-1-3-1-4.2,0c-1.2,1-1.1,2.5-1,3.9c0.5,8.8-2.5,17.5-8.3,24.1
							c-3.2,3.6-8.6,6.6-12.5,3.4c-1-0.9-1.7-2-2.1-3.2c-0.9-3-0.2-6,0.5-8.9l3.7-15.9c0.2-0.9-0.4-1.8-1.3-2c-0.5-0.1-1,0-1.4,0.3
							l-11.1,7.6c-1,0.7-2.2,1.2-3.5,1.3c-4.1,0.3-5.3-3.3-5.3-6.3c-0.1-6.6,3.4-12.9,8.2-17.6s10.6-8.1,16.3-11.6
							c1.8-1.1,3.6-2.3,4.3-4.4c0.4-1.2,0.1-2.5-0.8-3.3c-1.6-1.4-3.8-0.4-5.5,0.7c-5.1,3.4-9.3,8.1-15.5,9.5
							c-2.2,0.5-4.5,0.4-6.6-0.4c-6.5-2.6-6.2-9.6-3.1-14.1c3.3-4.7,8.1-7.8,12.7-11c9.2-6.5,22.1-18.3,34.5-14.6
							c7.3,2.2,13.7,7.7,18.3,13.5c3.4,4.3,5.8,9.3,7,14.6c0.6,2.7,0.9,5.6-0.6,8.1C866.3-435.7,865.4-434.9,864.2-434.4z"/>
						<g id="Group_31">
							<g id="Group_28">
								<path id="Path_35" class="st6" d="M829.3-400.7c-0.2,0-0.3-0.2-0.3-0.4c0,0,0,0,0,0c5.6-29,7.2-58.7,4.9-88.2
									c0-0.2,0.1-0.3,0.3-0.3h0c0.2,0,0.3,0.1,0.3,0.3c2.3,29.5,0.6,59.2-4.9,88.3C829.6-400.8,829.5-400.7,829.3-400.7z"/>
							</g>
							<g id="Group_29">
								<path id="Path_36" class="st6" d="M853.8-406.4c-0.2,0.1-0.4,0-0.4-0.2c0,0,0,0,0,0c-1.4-4-3.2-7.8-5.4-11.5
									c-1.8-2.7-4.9-6.4-9.4-8.1c-5.6-2.1-12.8-0.8-18.8,3.5c-5.5,3.9-9.5,9.4-13.4,14.8c-0.1,0.1-0.3,0.2-0.4,0.1c0,0,0,0,0,0
									c-0.1-0.1-0.2-0.3-0.1-0.5c0,0,0,0,0,0c3.9-5.4,7.9-11,13.5-14.9c3.9-2.9,8.6-4.5,13.5-4.6c2,0,4,0.3,5.9,1
									c4.7,1.8,7.8,5.5,9.7,8.3c2.2,3.7,4,7.5,5.4,11.6C854.1-406.7,854-406.5,853.8-406.4z"/>
							</g>
							<g id="Group_30">
								<path id="Path_37" class="st6" d="M858.4-446.6c-3-5.4-8-12.9-15.7-15.5c-6.6-2.2-14.7-0.5-21.6,4.6l-1.3,1
									c-5.9,4.3-11.4,8.3-17.3,14.3c-0.1,0.1-0.3,0.1-0.5,0c0,0,0,0,0,0c-0.1-0.1-0.1-0.3,0-0.5c5.9-6,11.4-10.1,17.3-14.4l1.3-1
									c4.6-3.5,10.2-5.5,16-5.6c2.1,0,4.2,0.3,6.2,1c8,2.7,13,10.3,16.1,15.8c0.1,0.2,0,0.4-0.1,0.4
									C858.7-446.4,858.5-446.4,858.4-446.6C858.4-446.6,858.4-446.6,858.4-446.6z"/>
							</g>
						</g>
					</g>
					<g id="Group_37">
						<path id="Path_38" class="st1" d="M871.5-438.3c-0.7,0.2-1.5,0.2-2.3,0l-8-1.9c-0.6-0.1-1.1,0.2-1.3,0.8
							c-0.1,0.3,0,0.6,0.2,0.8l5.7,8.3c1.2,1.4,2,3.2,2.3,5c0.1,0.8-0.1,1.6-0.5,2.3c-1.5,2.7-5.3,2.2-7.9,0.9
							c-4.8-2.5-8.5-6.8-10.2-12c-0.3-0.8-0.5-1.7-1.4-2c-0.9-0.3-1.9,0.1-2.4,1c-0.8,1.3-0.5,2.8-0.3,4.2c0.3,1.7,0.2,4.1-0.8,4.9
							c-1.4,0.8-3,1-4.5,0.6c-2-0.8-3.8-4.5-4.1-7.5c-0.5-4.7,0.3-9.5,2.2-13.8c0.7-1.7,1.6-3.3,1.6-5.1c0-2.1-1.7-4.6-4-3.7
							c-0.7,0.3-1.2,0.7-1.6,1.3c-1,1.5-1.1,3.3-1.4,5c-0.3,2.2-1.5,4.9-3.9,4.8c-0.8,0-1.5-0.3-2.1-0.8c-1.2-1.2-2-2.8-2.1-4.5
							c-0.5-3.3-0.3-6.8,0.7-10c1.3-4.4,3.7-9,7.4-11.9c6.2-4.9,16-2.5,22.8-0.8c3.4,0.8,7,3,9.9,5c2.8,1.9,4.5,5.8,1.4,8.8
							c-1,0.9-2.3,1.5-3.7,1.7c-3.8,0.6-7.3-1.2-11-2c-1.2-0.3-2.7-0.3-3.3,0.8c-0.3,0.7-0.2,1.5,0.3,2.1c0.9,0.9,2.1,1.5,3.4,1.5
							c4,0.7,8.1,1.4,11.9,3s7.2,4.5,8.6,8.3C873.7-441.4,873.9-439.1,871.5-438.3z"/>
						<g id="Group_36">
							<g id="Group_33">
								<path id="Path_39" class="st6" d="M856.5-432.7c-0.2,0.1-0.4,0.1-0.6-0.1c-9.7-15.5-17.4-32.2-22.7-49.7
									c-0.1-0.2,0.1-0.4,0.3-0.5c0,0,0,0,0,0c0,0,0,0,0.1,0c0.2,0,0.4,0.1,0.4,0.3c5.3,17.4,12.9,34.1,22.6,49.5
									C856.7-433.1,856.7-432.8,856.5-432.7z"/>
							</g>
							<g id="Group_34">
								<path id="Path_40" class="st6" d="M867.6-441.9c-3.4-2.2-6.9-4.5-10.9-5.5c-4.3-1.1-8.6-0.3-11.3,2.2
									c-1.8,1.8-3,4.1-3.5,6.6c-0.4,2.6-0.6,5.2-0.5,7.7c0,0.2-0.2,0.4-0.4,0.4c0,0,0,0,0,0c-0.2,0-0.4-0.2-0.4-0.4c0,0,0,0,0,0
									c-0.1-2.6,0-5.3,0.5-7.9c0.5-2.7,1.8-5.2,3.7-7.1c1.7-1.5,3.9-2.5,6.2-2.7c2-0.2,3.9-0.1,5.9,0.4c4.1,1,7.7,3.4,11.1,5.6
									c0.2,0.1,0.2,0.4,0.1,0.6C868-441.9,867.8-441.8,867.6-441.9z"/>
							</g>
							<g id="Group_35">
								<path id="Path_41" class="st6" d="M862.2-462.6c-4.2-1.8-8.6-3.3-13-4.4l-1-0.3c-5-1.3-9.9-0.5-13.2,2.2
									c-3.8,3.2-4.9,8.5-5.4,12.3c0,0.2-0.2,0.4-0.5,0.4c-0.2,0-0.4-0.2-0.4-0.5c0.5-3.9,1.7-9.5,5.7-12.8
									c1.9-1.6,4.3-2.6,6.8-2.9c2.4-0.3,4.8-0.1,7.1,0.5l1,0.3c4.5,1.1,8.9,2.5,13.2,4.4c0.2,0.1,0.3,0.3,0.2,0.5
									C862.7-462.6,862.4-462.5,862.2-462.6C862.2-462.6,862.2-462.6,862.2-462.6z"/>
							</g>
						</g>
					</g>
					<g id="Group_42">
						<path id="Path_42" d="M839.6-458.5c-0.4,0.2-0.8,0.4-1.2,0.3c-1.4-0.1-1.9-1.7-1.9-3c0.1-1-0.1-2-0.5-2.9
							c-0.2-0.3-0.5-0.6-0.8-0.8c-1.3-0.6-2.4,0.6-2.5,1.9c0,1,0.2,2,0.6,3c0.8,2.6,0.9,5.3,0.4,7.9c-0.3,1.7-1.1,3.4-2.8,4
							c-0.9,0.3-1.9,0.1-2.5-0.6c-0.8-0.9-0.5-1.9-0.2-2.8c0.3-0.7,0.4-1.6,0.1-2.4c-0.2-0.5-0.8-0.8-1.3-0.7
							c-0.5,0.1-0.7,0.6-0.9,1.1c-1.3,2.8-3.6,5-6.4,6.2c-1.5,0.6-3.7,0.7-4.4-0.9c-0.2-0.4-0.2-0.9-0.1-1.3c0.3-1,0.8-1.9,1.6-2.7
							l3.7-4.4c0.2-0.3,0.2-0.6-0.1-0.8c-0.1-0.1-0.3-0.2-0.4-0.1l-4.6,0.6c-0.4,0.1-0.9,0-1.3-0.2c-1.3-0.6-1.1-1.9-0.6-2.8
							c1.2-2.1,3.1-3.6,5.3-4.2c2.2-0.6,4.6-1,6.9-1c0.7,0,1.5-0.2,2-0.7c0.3-0.3,0.4-0.8,0.3-1.2c-0.3-0.7-1.1-0.7-1.8-0.7
							c-2.1,0.2-4.2,1-6.3,0.5c-0.8-0.2-1.5-0.6-2-1.2c-1.6-1.9-0.4-4,1.3-4.9c1.8-0.8,3.7-1.3,5.7-1.4c3.9-0.6,9.8-2.2,13,1
							c1.8,2,3,4.5,3.5,7.1c0.4,1.9,0.3,3.8-0.2,5.7C840.9-460,840.4-459.1,839.6-458.5z"/>
						<g id="Group_41">
							<g id="Group_38">
								<path id="Path_43" class="st6" d="M822.6-453.2c-0.1,0.1-0.3,0.2-0.5,0.1c0,0,0,0,0,0c-0.1-0.1-0.2-0.3-0.1-0.5
									c6.4-8.1,11.6-17.1,15.7-26.6c0.1-0.1,0.2-0.2,0.3-0.2c0,0,0.1,0,0.1,0c0.2,0.1,0.2,0.3,0.2,0.4
									C834.3-470.4,829-461.4,822.6-453.2z"/>
							</g>
							<g id="Group_39">
								<path id="Path_44" class="st6" d="M830.7-450.9c-0.2,0-0.3-0.2-0.3-0.4c0.2-1.4,0.3-2.9,0.2-4.4c-0.1-1.4-0.6-2.8-1.5-3.9
									c-1.6-1.6-3.9-2.3-6.2-1.8c-2.3,0.5-4.4,1.3-6.4,2.5c-0.2,0.1-0.4,0-0.4-0.1c0,0,0,0,0,0c-0.1-0.2,0-0.4,0.1-0.4
									c0,0,0,0,0,0c2.1-1.2,4.3-2.1,6.6-2.5c0.5-0.1,1-0.1,1.5-0.1c2,0,3.8,0.7,5.2,2.2c1,1.2,1.6,2.7,1.7,4.3
									c0.1,1.5,0,3-0.2,4.5C831-451,830.9-450.9,830.7-450.9z"/>
							</g>
							<g id="Group_40">
								<path id="Path_45" class="st6" d="M838.7-462.6c-0.2,0-0.3-0.1-0.3-0.3c-0.1-2.1-0.4-5.2-2.3-7.2c-1.9-1.8-4.6-2.5-7.2-2
									l-0.6,0.1c-2.6,0.3-5.1,0.9-7.6,1.7c-0.2,0.1-0.4,0-0.4-0.2c0,0,0,0,0,0c-0.1-0.2,0-0.4,0.2-0.4c0,0,0,0,0,0
									c2.5-0.8,5.1-1.4,7.7-1.7l0.6-0.1c0.6-0.1,1.3-0.2,2-0.1c2.2,0,4.3,0.8,5.8,2.3c2.1,2.2,2.4,5.4,2.5,7.6
									C839-462.7,838.9-462.6,838.7-462.6z"/>
							</g>
						</g>
					</g>
					<g id="Group_43">
						<path id="Path_46" class="st2" d="M849-474.2h-23.8c-0.7,0-1.4-0.6-1.4-1.4c0-0.1,0-0.2,0-0.3l0.9-3.9
							c0.1-0.6,0.7-1.1,1.3-1.1h22.1c0.6,0,1.2,0.4,1.3,1.1l0.9,3.9c0.2,0.7-0.3,1.5-1,1.6C849.2-474.2,849.1-474.2,849-474.2z"/>
						<path id="Path_47" class="st2" d="M828.3-494.1c0.1-0.9,0.9-1.6,1.8-1.6H844c0.9,0,1.7,0.7,1.8,1.6l1.9,13.3h-21.4
							L828.3-494.1z"/>
					</g>
				</g>
				<g id="Group_72">
					<path id="Path_48" class="st3" d="M719.2-372.5c0-1,0.8-1.8,1.8-1.8h20.3v3.6H721C720-370.7,719.2-371.5,719.2-372.5z"/>
					<path id="Path_49" class="st5" d="M751.5-354.5H731l-0.7-6.8c-0.1-1,0.3-2.1,1-2.8l6.5-6.5h19.9l-6.5,7.8L751.5-354.5z"/>
					<path id="Path_50" class="st7" d="M730.7-357.5h20.7l0.1,3H731L730.7-357.5z"/>
					<g id="Group_45">
						<path id="Path_51" class="st8" d="M753.4-361.6l0.7,7.1h-3.6l-0.7-6.8c-0.1-1,0.3-2.1,1-2.8l6.5-6.5h-16.8
							c-1,0-1.8-0.8-1.8-1.8c0,0,0,0,0,0c0-1,0.8-1.8,1.8-1.8c0,0,0,0,0,0h17.1c1.7,0,3.1,1.2,3.4,2.8c0.2,1.2-0.2,2.4-1.1,3.3
							L753.4-361.6z"/>
					</g>
					<path id="Path_52" class="st8" d="M793.3-283.5h-92.4c-3.1,0-5.7-2.4-6-5.5l-5.1-59c-0.3-3.3,2.1-6.2,5.4-6.5
						c0.2,0,0.4,0,0.5,0h92.4c3.1,0,5.7,2.4,6,5.5l5.1,59c0.3,3.3-2.1,6.2-5.4,6.5C793.6-283.5,793.4-283.5,793.3-283.5z"/>
					<path id="Path_53" class="st5" d="M790.3-283.5H698c-2.9,0-5.3-2-5.9-4.9c0-0.2-0.1-0.4-0.1-0.6l-5.2-59
						c-0.3-3.3,2.2-6.2,5.5-6.5c0.2,0,0.4,0,0.5,0h92.4c3.1,0,5.7,2.4,6,5.5l5.1,59c0.3,3.3-2.2,6.2-5.5,6.5
						C790.7-283.5,790.5-283.5,790.3-283.5z"/>
					<path id="Path_54" class="st9" d="M790.4-287.1H698c-1.3,0-2.3-1-2.4-2.2l-0.3-3.5l-4.8-55.5c-0.1-0.7,0.2-1.3,0.6-1.8
						c0.5-0.5,1.1-0.8,1.8-0.8h92.4c1.3,0,2.3,1,2.4,2.2l4.9,56l0.3,3.1c0.1,0.7-0.2,1.3-0.6,1.8C791.7-287.4,791-287.1,790.4-287.1
						z"/>
					<path id="Path_55" d="M790.4-287.1H698c-1.3,0-2.3-1-2.4-2.2l-5.1-59c-0.1-0.7,0.2-1.3,0.6-1.8c0.5-0.5,1.1-0.8,1.8-0.8h92.4
						c1.3,0,2.3,1,2.4,2.2l5.1,59c0.1,0.7-0.2,1.3-0.6,1.8C791.7-287.4,791-287.1,790.4-287.1z"/>
					<g id="Group_57">
						<path id="Path_56" class="st6" d="M790.4-287.1H698c-1.3,0-2.3-1-2.4-2.2l-0.3-3.5h97.2l0.3,3.1c0.1,0.7-0.2,1.3-0.6,1.8
							C791.7-287.4,791-287.1,790.4-287.1z"/>
						<path id="Path_57" class="st1" d="M717.1-291.5h54.5l0.3,3h-54.5L717.1-291.5z"/>
						<g id="Group_56">
							<g id="Group_49">
								<g id="Group_46">
									<path id="Path_58" class="st3" d="M698.1-289.1c-0.1,0.1-0.2,0.1-0.3,0c0,0,0,0,0,0c-0.1-0.1-0.1-0.2,0-0.3l1.9-2
										c0.1-0.1,0.2-0.1,0.3,0c0.1,0.1,0.1,0.2,0,0.3L698.1-289.1z"/>
									<path id="Path_59" class="st3" d="M699.8-289.1l-2.2-2c-0.1-0.1-0.1-0.2,0-0.3c0.1-0.1,0.2-0.1,0.3,0l2.2,2
										c0.1,0.1,0.1,0.2,0,0.3C700-289,699.9-289,699.8-289.1C699.8-289.1,699.8-289.1,699.8-289.1z"/>
								</g>
								<g id="Group_47">
									<path id="Path_60" class="st3" d="M703-288.8c-0.8,0-1.4-0.6-1.5-1.4c-0.1-0.7,0.4-1.3,1.1-1.4c0.1,0,0.1,0,0.2,0
										c0.8,0,1.4,0.6,1.5,1.4c0.1,0.7-0.4,1.3-1.1,1.4C703.1-288.8,703.1-288.8,703-288.8z M702.8-291.3c-0.5,0-1,0.4-1,0.9
										c0,0,0,0.1,0,0.1c0.1,0.6,0.6,1.1,1.2,1.1c0.5,0,1-0.4,1-0.9c0,0,0-0.1,0-0.1C703.9-290.8,703.4-291.3,702.8-291.3
										L702.8-291.3z"/>
								</g>
								<g id="Group_48">
									<path id="Path_61" class="st3" d="M708.1-291.1h-2.5c-0.1,0-0.2-0.1-0.2-0.2c0-0.1,0-0.1,0.1-0.2c0,0,0,0,0,0h2.5
										c0.1,0,0.2,0.1,0.2,0.2C708.3-291.1,708.2-291.1,708.1-291.1C708.1-291.1,708.1-291.1,708.1-291.1z"/>
								</g>
							</g>
							<g id="Group_51">
								<g id="Group_50">
									<path id="Path_62" class="st3" d="M788.3-291h-2.5c-0.1,0-0.2-0.1-0.2-0.2c0-0.1,0-0.1,0.1-0.2c0,0,0,0,0,0h2.5
										c0.1,0,0.2,0.1,0.2,0.2C788.5-291.1,788.4-291,788.3-291C788.3-291,788.3-291,788.3-291z"/>
								</g>
							</g>
							<g id="Group_53">
								<g id="Group_52">
									<path id="Path_63" class="st3" d="M788.4-290.1h-2.5c-0.1,0-0.2-0.1-0.2-0.2c0-0.1,0-0.1,0.1-0.2c0,0,0,0,0,0h2.5
										c0.1,0,0.2,0.1,0.2,0.2C788.6-290.1,788.5-290.1,788.4-290.1C788.4-290.1,788.4-290.1,788.4-290.1z"/>
								</g>
							</g>
							<g id="Group_55">
								<g id="Group_54">
									<path id="Path_64" class="st3" d="M788.5-289.2H786c-0.1,0-0.2-0.1-0.2-0.2c0-0.1,0-0.1,0.1-0.2c0,0,0,0,0,0h2.5
										c0.1,0,0.2,0.1,0.2,0.2C788.6-289.2,788.6-289.2,788.5-289.2C788.5-289.2,788.5-289.2,788.5-289.2z"/>
								</g>
							</g>
						</g>
					</g>
					<g id="Group_58">
						<path id="Path_65" class="st1" d="M763.9-331.2h-18.4c-0.5,0-0.9-0.4-1-0.9c0-0.5,0.3-0.9,0.8-0.9c0,0,0.1,0,0.1,0h18.4
							c0.5,0,0.9,0.4,1,0.9C764.8-331.7,764.5-331.3,763.9-331.2C764-331.2,764-331.2,763.9-331.2z"/>
						<path id="Path_66" class="st1" d="M763.8-336H760c-0.4,0-0.7-0.3-0.8-0.7c0-0.4,0.2-0.7,0.6-0.7c0,0,0,0,0.1,0h3.7
							c0.4,0,0.7,0.3,0.8,0.7C764.5-336.4,764.2-336.1,763.8-336C763.8-336,763.8-336,763.8-336z"/>
						<path id="Path_67" class="st3" d="M763.1-340.5h-13.6c-0.3,0-0.5-0.2-0.5-0.4c0-0.2,0.1-0.4,0.4-0.4c0,0,0,0,0,0h13.6
							c0.3,0,0.5,0.2,0.5,0.4C763.6-340.8,763.4-340.6,763.1-340.5C763.2-340.5,763.2-340.5,763.1-340.5z"/>
						<path id="Path_68" class="st3" d="M762.9-344.2h-13.6c-0.3,0-0.5-0.2-0.5-0.4c0-0.2,0.2-0.4,0.4-0.4c0,0,0,0,0,0h13.6
							c0.3,0,0.5,0.2,0.5,0.4C763.3-344.4,763.2-344.2,762.9-344.2C762.9-344.2,762.9-344.2,762.9-344.2z"/>
						<path id="Path_69" class="st3" d="M718.3-331.6h-13.6c-0.3,0-0.5-0.2-0.5-0.4c0-0.2,0.1-0.4,0.4-0.4c0,0,0,0,0,0h13.6
							c0.3,0,0.5,0.2,0.5,0.4C718.8-331.8,718.6-331.6,718.3-331.6C718.4-331.6,718.4-331.6,718.3-331.6z"/>
						<path id="Path_70" class="st2" d="M718.1-335.2h-4.6c-0.3,0-0.5-0.2-0.5-0.4c0-0.2,0.1-0.4,0.4-0.4c0,0,0,0,0,0h4.6
							c0.3,0,0.5,0.2,0.5,0.4C718.5-335.4,718.4-335.2,718.1-335.2C718.1-335.2,718.1-335.2,718.1-335.2z"/>
						<path id="Path_71" class="st3" d="M710.1-335.2H709c-0.3,0-0.5-0.2-0.5-0.4c0-0.2,0.1-0.4,0.4-0.4c0,0,0,0,0,0h1.1
							c0.3,0,0.5,0.2,0.5,0.4C710.5-335.4,710.4-335.2,710.1-335.2C710.1-335.2,710.1-335.2,710.1-335.2z"/>
						<path id="Path_72" class="st3" d="M717.8-338.9h-13.6c-0.3,0-0.5-0.2-0.5-0.4c0-0.2,0.1-0.4,0.4-0.4c0,0,0,0,0,0h13.6
							c0.3,0,0.5,0.2,0.5,0.4C718.3-339.1,718.1-338.9,717.8-338.9C717.9-338.9,717.9-338.9,717.8-338.9z"/>
						<path id="Path_73" class="st6" d="M738.8-340.4h-4.1c-0.4,0-0.6-0.3-0.7-0.6c0-0.3,0.2-0.6,0.5-0.6c0,0,0,0,0.1,0h4.1
							c0.3,0,0.6,0.3,0.7,0.6C739.4-340.7,739.1-340.4,738.8-340.4C738.8-340.4,738.8-340.4,738.8-340.4z"/>
						<path id="Path_74" class="st6" d="M739-337.4h-4.1c-0.4,0-0.6-0.3-0.7-0.6c0-0.3,0.2-0.6,0.5-0.6c0,0,0,0,0.1,0h4.1
							c0.4,0,0.6,0.3,0.7,0.6C739.6-337.7,739.4-337.4,739-337.4C739-337.4,739-337.4,739-337.4z"/>
						<path id="Path_75" class="st6" d="M739.2-334.4h-4.1c-0.4,0-0.6-0.3-0.7-0.6c0-0.3,0.2-0.6,0.5-0.6c0,0,0,0,0.1,0h4.1
							c0.4,0,0.6,0.3,0.7,0.6C739.8-334.7,739.6-334.4,739.2-334.4C739.2-334.4,739.2-334.4,739.2-334.4z"/>
						<path id="Path_76" class="st6" d="M739.4-331.4h-4.1c-0.3,0-0.6-0.3-0.7-0.6c0-0.3,0.2-0.6,0.5-0.6c0,0,0,0,0.1,0h4.1
							c0.4,0,0.6,0.3,0.7,0.6C740-331.7,739.8-331.5,739.4-331.4C739.4-331.4,739.4-331.4,739.4-331.4z"/>
						<path id="Path_77" class="st6" d="M730.8-331.4h-2.7c-0.3,0-0.6-0.3-0.7-0.6c0-0.3,0.2-0.6,0.5-0.6c0,0,0,0,0.1,0h2.7
							c0.4,0,0.6,0.3,0.7,0.6C731.4-331.7,731.2-331.5,730.8-331.4C730.8-331.4,730.8-331.4,730.8-331.4z"/>
						<path id="Path_78" class="st2" d="M730.3-338h-2.7c-0.3,0-0.6-0.3-0.7-0.6c0-0.3,0.2-0.6,0.5-0.6c0,0,0,0,0.1,0h2.7
							c0.3,0,0.6,0.3,0.7,0.6C730.9-338.3,730.7-338.1,730.3-338C730.4-338,730.3-338,730.3-338z"/>
					</g>
					<path id="Path_79" class="st6" d="M702.5-325.2h73.1l2.6,30.1h-73.1L702.5-325.2z"/>
					<g id="Group_59">
						<path id="Path_80" class="st1" d="M774.7-298.9H750c-0.3,0-0.6-0.2-0.6-0.5c0-0.3,0.2-0.5,0.4-0.5c0,0,0,0,0.1,0h24.7
							c0.3,0,0.6,0.2,0.6,0.6C775.2-299.2,775-298.9,774.7-298.9C774.7-298.9,774.7-298.9,774.7-298.9z"/>
					</g>
					<g id="Group_60">
						<path id="Path_81" class="st1" d="M746.6-298.9h-5.7c-0.3,0-0.6-0.2-0.6-0.5c0-0.3,0.2-0.5,0.4-0.5c0,0,0,0,0.1,0h5.7
							c0.3,0,0.6,0.2,0.6,0.6C747.2-299.2,747-298.9,746.6-298.9C746.7-298.9,746.7-298.9,746.6-298.9z"/>
					</g>
					<g id="Group_61">
						<path id="Path_82" class="st1" d="M734.6-298.9h-25c-0.3,0-0.6-0.2-0.6-0.5c0-0.3,0.2-0.5,0.4-0.5c0,0,0,0,0.1,0h25
							c0.3,0,0.6,0.2,0.6,0.6C735.1-299.2,734.9-298.9,734.6-298.9C734.6-298.9,734.6-298.9,734.6-298.9z"/>
					</g>
					<g id="Group_62">
						<path id="Path_83" class="st1" d="M774.3-302.5h-32c-0.3,0-0.6-0.2-0.6-0.5c0-0.3,0.2-0.5,0.4-0.5c0,0,0,0,0.1,0h32
							c0.3,0,0.6,0.2,0.6,0.6C774.9-302.8,774.7-302.6,774.3-302.5C774.4-302.5,774.4-302.5,774.3-302.5z"/>
					</g>
					<g id="Group_63">
						<path id="Path_84" class="st1" d="M738.1-301.9h-17.3c-0.3,0-0.6-0.2-0.6-0.5c0-0.3,0.2-0.5,0.4-0.5c0,0,0,0,0.1,0H738
							c0.3,0,0.6,0.2,0.6,0.5C738.7-302.1,738.5-301.9,738.1-301.9C738.2-301.9,738.2-301.9,738.1-301.9z"/>
					</g>
					<g id="Group_64">
						<path id="Path_85" class="st2" d="M717.6-301.9h-8.8c-0.3,0-0.6-0.2-0.6-0.5c0-0.3,0.2-0.5,0.4-0.5c0,0,0,0,0.1,0h8.8
							c0.3,0,0.6,0.2,0.6,0.5C718.1-302.1,717.9-301.9,717.6-301.9C717.6-301.9,717.6-301.9,717.6-301.9z"/>
					</g>
					<g id="Group_65">
						<path id="Path_86" class="st1" d="M772.1-307h-39.8c-0.3,0-0.6-0.2-0.6-0.5c0-0.3,0.2-0.5,0.4-0.5c0,0,0,0,0.1,0H772
							c0.3,0,0.6,0.2,0.6,0.5C772.6-307.3,772.4-307,772.1-307C772.1-307,772.1-307,772.1-307z"/>
					</g>
					<g id="Group_66">
						<path id="Path_87" class="st1" d="M726.4-307h-13.6c-0.3,0-0.6-0.2-0.6-0.5c0-0.3,0.2-0.5,0.4-0.5c0,0,0,0,0.1,0h13.6
							c0.3,0,0.6,0.2,0.6,0.5C726.9-307.3,726.7-307,726.4-307C726.4-307,726.4-307,726.4-307z"/>
					</g>
					<g id="Group_67">
						<path id="Path_88" class="st1" d="M747-311h-39c-0.3,0-0.6-0.2-0.6-0.5c0-0.3,0.2-0.5,0.4-0.5c0,0,0,0,0.1,0h39
							c0.3,0,0.6,0.2,0.6,0.5C747.5-311.3,747.3-311.1,747-311C747-311,747-311,747-311z"/>
					</g>
					<g id="Group_68">
						<path id="Path_89" class="st1" d="M773.1-316.5h-43.4c-0.3,0-0.6-0.2-0.6-0.5c0-0.3,0.2-0.5,0.4-0.5c0,0,0,0,0.1,0H773
							c0.3,0,0.6,0.2,0.6,0.6C773.7-316.8,773.5-316.5,773.1-316.5C773.2-316.5,773.1-316.5,773.1-316.5z"/>
					</g>
					<g id="Group_69">
						<path id="Path_90" class="st1" d="M748.6-318.8h-39.9c-0.3,0-0.6-0.2-0.6-0.5c0-0.3,0.2-0.5,0.4-0.5c0,0,0,0,0.1,0h39.9
							c0.3,0,0.6,0.2,0.6,0.5C749.2-319.1,749-318.9,748.6-318.8C748.7-318.8,748.6-318.8,748.6-318.8z"/>
					</g>
					<g id="Group_70">
						<path id="Path_91" class="st1" d="M764-321.6h-22.2c-0.3,0-0.6-0.2-0.6-0.6c0-0.3,0.2-0.5,0.4-0.5c0,0,0,0,0.1,0h22.2
							c0.3,0,0.6,0.2,0.6,0.5C764.6-321.9,764.4-321.7,764-321.6C764.1-321.6,764-321.6,764-321.6z"/>
					</g>
					<g id="Group_71">
						<path id="Path_92" class="st1" d="M773.6-311h-14.3c-0.3,0-0.6-0.2-0.6-0.5c0-0.3,0.2-0.5,0.4-0.5c0,0,0,0,0.1,0h14.3
							c0.3,0,0.6,0.2,0.6,0.5C774.1-311.3,773.9-311.1,773.6-311C773.6-311,773.6-311,773.6-311z"/>
					</g>
				</g>
				<g id="Group_73">
					<rect id="Rectangle_1" x="773.7" y="-495.7" class="st1" width="4.7" height="110.5"/>
					<rect id="Rectangle_2" x="778.4" y="-495.7" class="st5" width="1.6" height="110.5"/>
					<rect id="Rectangle_3" x="601.8" y="-495.7" class="st1" width="4.7" height="110.5"/>
					<rect id="Rectangle_4" x="606.5" y="-495.7" class="st5" width="1.5" height="110.5"/>
					<rect id="Rectangle_5" x="642.5" y="-495.7" class="st5" width="1.5" height="110.5"/>
					<rect id="Rectangle_6" x="807.9" y="-495.7" class="st1" width="4.7" height="110.5"/>
					<rect id="Rectangle_7" x="637.8" y="-495.7" class="st1" width="4.7" height="110.5"/>
					<rect id="Rectangle_8" x="812.6" y="-495.7" class="st5" width="1.6" height="110.5"/>
					<rect id="Rectangle_9" x="580.4" y="-380.1" class="st1" width="225" height="5.8"/>
					<rect id="Rectangle_10" x="805.4" y="-380.1" class="st8" width="33.1" height="5.8"/>
					<rect id="Rectangle_11" x="593.8" y="-385.9" width="204" height="5.8"/>
					<rect id="Rectangle_12" x="795.3" y="-385.9" class="st1" width="28.7" height="5.8"/>
				</g>
				<g id="Group_74">
					<rect id="Rectangle_13" x="680.4" y="-374.2" class="st1" width="95" height="3.8"/>
					<path id="Path_93" class="st5" d="M775-374.2h31.7v5.3l-31.7-1.6L775-374.2z"/>
				</g>
				<g id="Group_77">
					<path id="Path_94" class="st2" d="M658.6-479.9c-1.1-2.2-2.6-4.6-2.6-4.6c2.1-1.7,4.5-2.9,7-3.6c1.1,2.1,1.8,4.3,2.3,6.5
						C665-481.6,661.2-477.5,658.6-479.9z"/>
					<path id="Path_95" class="st1" d="M661.3-483.1L661.3-483.1c-1.8,0.6-3.7,0.2-4.9-1.1l-0.1-0.1c-1.8-1.7-9.9-5.3-10.2-8
						c-0.1-1.4,2.6-2.9,4.9-3.2s4.4-0.4,5.7,0.2c1.6,0.8,5,4.3,5.6,5.1c0.6,1.2,0.9,2.5,1,3.8C663.4-485,662.6-483.6,661.3-483.1z"
						/>
					<path id="Path_96" class="st1" d="M657.4-486.3c-2.3-1.6-9.8-4.3-10.1-6.5c-0.1-1.1,2.2-2.4,4.1-2.7c1.6-0.4,3.2-0.3,4.8,0.2
						c1.4,0.6,4.2,3.6,4.7,4.3C663.6-487.4,659.7-484.7,657.4-486.3z"/>
					<path id="Path_97" class="st1" d="M677.2-411.1c-11.5-33.1-20.2-70.1-20.2-70.1c2.6,1.4,6.9-1.6,8.9-2.5
						c0,0,15.1,31.4,33.7,65.9C707.3-403.6,684.8-389.3,677.2-411.1z"/>
					<g id="Group_75">
						<path id="Path_98" class="st2" d="M715.7-358.6c-1.1-0.5-2.3-0.8-3.6-0.9c1.4-0.1,1.2-0.9,2.6-1.2c0.6,0.1,2.6,1.5,2.4,2.1
							C716.9-357.8,716.3-358.3,715.7-358.6z"/>
						<path id="Path_99" class="st2" d="M724.1-362.7c-1,0.5-2.1,0.8-3.1,1.1c-0.3,0.1-3.9,1.2-5.6,1.6c-1.4,0.3-2.8,0.5-4.2,0.6
							c-0.9-1.9-1.6-3.8-2.2-5.8c2.4-0.5,9.8-1.5,10-1.6c2.8-1,3.8-0.3,3.5,0.5c-0.1,0.2,2,0.2,1.9,1c0.4,0.1,0.7,0.5,0.7,0.9
							C724.9-363.8,724.6-363.2,724.1-362.7z"/>
						<path id="Path_100" class="st2" d="M671.5-343c-2.3,0-5.4-1.5-4.9-6.1c0.5-5,30.9-14.1,43.3-16.4c0.3,2,0.9,4,1.7,5.9
							c-7.6,1.2-31.8,14.1-38.7,16.4C672.4-343,672-343,671.5-343z"/>
						<path id="Path_101" class="st2" d="M656.1-307.3c-0.7,1-12.1-7.2-13.5-9.3c-3.1-4.8,16.9-27.6,25.4-34.5
							c3.2-2.6,13.4-1.5,6.2,9.4C668.5-332.8,660.2-312.7,656.1-307.3z"/>
						<path id="Path_102" class="st1" d="M676.8-343.1c-0.4,0.8-0.8,1.5-1.3,2.2c-2.9,4.4-15.5,31.1-18.2,37.4
							c-0.2,0.5-12-1.6-15.2-14c-2-7.5,18-29.1,24.9-34.7c6.5-5.5,31.7-12.8,42.6-14.8l2.2,8.9c-4.4,0.7-15.4,5.9-24.2,10
							C683.5-346.1,679.7-344.3,676.8-343.1z"/>
					</g>
					<path id="Path_103" class="st7" d="M740.8-401.8c-23.6,13.3-86.9,19.6-97.1,18.9c-5.5-0.4-23.6-17.8-3-28.7
						c13-6.9,75.4-5.1,93.6-7.8C744.3-421,750.2-407.1,740.8-401.8z"/>
					<path id="Path_104" class="st2" d="M702.5-479.9c-0.3-2.1-0.2-4.3,0.3-6.4c0.1-0.2,5,0.2,7,2.2c-0.4,1.2-0.4,2.6,0.1,3.8
						C707.4-478,702.9-480,702.5-479.9z"/>
					<path id="Path_105" class="st7" d="M721.9-411.1c-11.5-33.1-20.2-70.1-20.2-70.1c2,1.3,7.2-0.7,8.7-0.4c0,0,15.3,29.4,34,63.8
						C752-403.6,729.5-389.3,721.9-411.1z"/>
					<path id="Path_106" class="st1" d="M710.6-484.7c-0.9,0.9-1.6,1.4-1.9,1.7c-1.9,1.2-4.3,0.6-5.5-1.3c-0.2-0.3-0.3-0.5-0.4-0.8
						c0,0-0.6-3.3,1-5.1c0.6-0.7,3.9-4.3,5.6-5.1c1.3-0.6,3.4-0.5,5.7-0.2s5,1.8,4.9,3.2C719.7-489.5,712.4-486.4,710.6-484.7z"/>
					<path id="Path_107" class="st1" d="M708.7-486.3c-2.3,1.6-6.2-1.1-3.5-4.8c0.5-0.7,3.3-3.6,4.7-4.3c1.6-0.5,3.2-0.5,4.8-0.2
						c1.9,0.3,4.2,1.6,4.1,2.7C718.6-490.5,711.1-487.9,708.7-486.3z"/>
					<path id="Path_108" class="st3" d="M692.9-371.8c-6.5-1.8-13.2-2.6-19.8-2.4c-11.3,0.3-22.4,1.8-33.6,3.3
						c-2.6,0.3-5.1,0.7-7.6,1.1c-1.1-9.1-1.7-18.3-1.9-27.5c1.1-0.1,38.9-11.6,54-6.6c5.7,1.9,12.7,2.6,16,14.3
						C695.3-386.7,692.8-382.5,692.9-371.8z"/>
					<path id="Path_109" class="st2" d="M662.8-285.8c0.5-3.2-0.8-12.7-1.9-14.3c1.8-3.1,11.6-3.7,13.1-1.8
						c-1.5,3.7,0.1,10.6,0.1,11.3C671.9-291,663.6-286.4,662.8-285.8z"/>
					<path id="Path_110" class="st2" d="M673.3-274.7c-4.7-0.3-7.5-4.4-7.2-9c0,0,0.3-4.8,0.3-4.8c0.2-3.5,5.8-7.8,9-7.8
						c7.2,0,7.4,15.2,7.4,16.7C682.8-274.6,677.6-274.4,673.3-274.7z"/>
					<path id="Path_111" class="st1" d="M684.2-307c-1.5,0.8-10.1,5.3-10.1,5.3c-2.2-0.8-4.6-1-7-0.5c-4.4,0.9-5.9,2.7-5.9,2.7
						s-7.4-1.8-9.9-2.4c-7.5-1.6-10.3-6.6-12-12.5c-0.4-1.4-10-48.3-10.2-79.5c1.2,0,2.5,0,3.9-0.1l4.3,19.8l1.4-20.2
						c14.7-1,28.4-6.4,46-1.6l1.6,15.7l1.8-14.7c4.4,1.3,8.3,4,11.1,7.6c-8.8,11.5-9,63.1-9.2,66.5
						C689.7-313.6,689.9-310.1,684.2-307z"/>
					<g id="Group_76">
						<path id="Path_112" class="st2" d="M744.3-357.7c-1-0.7-2.1-1.3-3.3-1.7c1.4,0.2,1.4-0.6,2.8-0.6c0.6,0.2,2.3,2.1,1.9,2.5
							C745.3-356.7,744.8-357.3,744.3-357.7z"/>
						<path id="Path_113" class="st2" d="M753.4-360c-1.1,0.2-2.2,0.4-3.3,0.4c-0.3,0-4.1,0.4-5.8,0.3c-1.4,0-2.8-0.1-4.3-0.3
							c-0.5-2-0.8-4.1-0.9-6.1c2.4,0,9.9,0.6,10.1,0.6c3-0.3,3.8,0.6,3.3,1.2c-0.1,0.2,1.9,0.6,1.6,1.4c0.3,0.2,0.5,0.6,0.5,1
							C754.4-360.9,753.9-360.3,753.4-360z"/>
						<path id="Path_114" class="st2" d="M700.9-350.8c-2.3,0.1-5.5-1.2-5.2-5.9c0.3-5,27.5-9,43.7-9c0.4,2,1,4,1.9,5.9
							c-7.5,1.5-32.2,6.2-39.1,8.7C701.8-350.8,701.3-350.8,700.9-350.8z"/>
						<path id="Path_115" class="st2" d="M687-314.5c-0.7,1-12.4-6.7-13.8-8.7c-3.3-4.6,15.7-28.3,23.9-35.5
							c3.1-2.7,13.3-2.1,6.6,9.1C698.3-340.5,690.8-320,687-314.5z"/>
						<path id="Path_116" class="st1" d="M688.4-310.7c-0.2,0.5-15.1-4.8-17.8-12c-2.7-7.2,18.8-31.2,25.4-37.1
							c6.3-5.7,32.2-6.4,43.1-7.3l1.1,8.9c-4.4,0.9-31.1,5.7-34,7.1C705.9-350.3,690.8-317.1,688.4-310.7z"/>
					</g>
					<path id="Path_117" class="st8" d="M663.3-268.9c-6.4-4.9-6.7-10.4-4.4-18.3c1-3.5,2.7-9.4,4.8-10c6.5-2,11.1,18.2,12.6,18.4
						c1.6,0.2-0.2-3.3-1.4-4.7c3,1.5,11.2,3.9,9.1,9.4C681.2-266.7,669.4-264.2,663.3-268.9z"/>
				</g>
				<g id="Group_96">
					<g id="Group_95">
						<g id="Group_81">
							<g id="Group_80">
								<g id="Group_78">
									<path id="Path_118" class="st6" d="M657.7-415.9h-33.4c-3.1-0.1-5.6-2.3-6.2-5.3l-17.7-74l3.1-0.3l1.8-0.1l18.5,74.4
										c0.3,1.7-0.6,2.8,1.2,2.8H657c1.8-0.1,3.4-1.4,3.7-3.2l10.7-74h3.9L665-421.2C664.5-418.3,660.7-415.9,657.7-415.9z"/>
								</g>
								<g id="Group_79">
									<path id="Path_119" class="st10" d="M660.6-415.9h-32.7c-3.1-0.1-5.7-2.3-6.3-5.2l-17.3-74.4l2.7-0.2l17.1,74.1
										c0.4,1.8,2,3.1,3.9,3.2h32.7c1.8-0.1,3.4-1.4,3.7-3.2l11-74l2.7,0.4l-11.1,74C666.2-418.2,663.7-416,660.6-415.9z"/>
								</g>
							</g>
						</g>
						<g id="Group_94">
							<g id="Group_84">
								<g id="Group_82">
									<path id="Path_120" class="st6" d="M621.2-415.7c-3.3-0.1-5.7-0.1-6.8-0.1c-0.1,0-1.6,0.7-3.4,9.8
										c-1.1,5.5-1.9,15.8-2.4,19.9c-0.2,1.7-0.4,3-0.5,3.7l-0.2,1.2l-2.5-0.4l0.2-1.2c0.1-0.7,0.3-2,0.5-3.6
										c2.6-20.6,4.8-31.9,8.3-31.9c1.2,0,3.6,0.1,6.9,0.1c8.6,0.2,19,0.5,38.2,0.5h1.3v2.5h-1.3
										C640.2-415.1,629.8-415.5,621.2-415.7z"/>
								</g>
								<g id="Group_83">
									<path id="Path_121" class="st10" d="M613.2-405.4c-1.1,5.4-1.9,15.7-2.4,19.8c-0.2,1.6-0.4,2.9-0.5,3.6l-2.5-0.4
										c0.1-0.7,0.3-1.9,0.5-3.5c2.6-20.4,4.8-31.7,8.3-31.7h45.1v2.5l-45.1,0C616.6-415.1,615.1-414.5,613.2-405.4z"/>
								</g>
							</g>
							<g id="Group_85">
								<path id="Path_122" class="st5" d="M672.9-410.4h-54.3c-2.4,0-4.3-1.9-4.3-4.3c0-2.4,1.9-4.3,4.3-4.3h54.3
									c2.4,0,4.3,1.9,4.3,4.3C677.2-412.3,675.3-410.4,672.9-410.4z"/>
							</g>
							<g id="Group_86">
								<path id="Path_123" class="st8" d="M714.5-414.7c-2.7,2.8-6.9,4.3-12.3,4.3h-34.9c-2.1,0-3.8-1.7-3.8-3.8c0,0,0,0,0,0
									c0-2.1,1.7-3.8,3.8-3.8c0,0,0,0,0,0h34.9c5.3,0,7.2-1.9,7.6-3l0.1-1.7h7.4l-0.1,2.3C717-418.2,716-416.2,714.5-414.7z"/>
								<path id="Path_124" class="st8" d="M709.7-420.7l0-0.1c0,0.1,0,0.3,0,0.4C709.7-420.6,709.7-420.7,709.7-420.7z"/>
							</g>
							<rect id="Rectangle_14" x="671.5" y="-419" width="34" height="3.8"/>
							<g id="Group_89">
								<g id="Group_87">
									<path id="Path_125" class="st6" d="M663.3-406.1c-1.2,5.7-2.1,16.5-2.7,20.5c-0.2,1.5-0.4,2.6-0.5,3.3l-0.2,1.2l-2.5-0.4
										l0.2-1.2c0.1-0.6,0.3-1.8,0.5-3.2c2.9-21.4,5.2-33.1,8.7-33.1h1.3l0.1,2.5H667C666.8-416.5,665.3-415.7,663.3-406.1z"/>
								</g>
								<g id="Group_88">
									<path id="Path_126" class="st10" d="M665.4-405.7c-1.1,5.5-1.9,15.8-2.4,20c-0.2,1.7-0.4,3-0.5,3.7l-2.5-0.4
										c0.1-0.7,0.3-2,0.5-3.6c2.6-20.6,4.8-32,8.3-32l0,2.5C668.8-415.5,667.3-414.8,665.4-405.7z"/>
								</g>
							</g>
							<g id="Group_93">
								<g id="Group_92">
									<g id="Group_90">
										<path id="Path_127" class="st6" d="M701.3-413.6l-27.9,0.1c-3.1-0.1-5.6-2.3-6.2-5.3l-10.5-76.4l3.1-0.3l3.3-0.1l9.8,76.8
											c0.3,1.7-0.6,3.5,1.2,3.5l26.6-0.6c1.8-0.1,3.4-1.4,3.7-3.2l13.8-76.4h3.9l-13.5,76.8
											C708.2-415.9,704.2-413.6,701.3-413.6z"/>
									</g>
									<g id="Group_91">
										<path id="Path_128" class="st10" d="M704.2-413.5h-27.3c-3.1-0.1-5.6-2.3-6.1-5.3l-10.3-76.4l2.7-0.4l10.1,76.4
											c0.3,1.8,1.8,3.1,3.7,3.2h27.3c1.8-0.1,3.3-1.4,3.7-3.2l14.1-76.4l2.7,0.4l-14.3,76.4
											C709.9-415.9,707.3-413.6,704.2-413.5z"/>
									</g>
								</g>
							</g>
							<path id="Path_129" d="M650.2-330.6h-40.7c-7.5,0-10.3-4.7-11-7.7c-0.2-0.8,4.4-1.2,4.6-2.2l6-40.6l0.3-2.2
								c0,0,50.8,0.5,52.8,0.5s2.7,1.3,3.4,3.4c0.3,1.2-6.3,40.9-6.3,40.9C658.4-334,654.7-330.8,650.2-330.6z"/>
							<path id="Path_130" class="st1" d="M645.8-334.9h-42.5c-3.7,0.1-6.7-2.7-6.8-6.4c0-0.5,0-0.9,0.1-1.4l6-40.6
								c0,0,6.2-3,24.8-3c11.2,0,22.4,1,33.4,3l-6,40.6C654.1-338.3,650.3-335,645.8-334.9z"/>
						</g>
					</g>
				</g>
			</g>
		</g>
	</g>
</g>
</svg>
