<svg xmlns="http://www.w3.org/2000/svg" xmlns:xlink="http://www.w3.org/1999/xlink" viewBox="0 0 66 45" fill-rule="evenodd" stroke-linecap="round" stroke-linejoin="round"><use xlink:href="#A" x=".5" y=".5"/><symbol id="A" overflow="visible"><path d="M39.755 43.554c-.347.001-.67-.18-.847-.48L31.453 30.64 17.5 34.44c-.437.105-.89-.1-1.1-.495L.117 3.31c-.153-.285-.156-.626-.01-.914s.426-.485.746-.528L14.687.01c.39-.054.776.13.98.468l16.7 27.87 19.406-5.277-6.47-9.14c-.19-.264-.24-.604-.13-.9s.364-.538.678-.62l9.08-2.146c.37-.088.758.045.996.34l7.857 9.8c.208.26.272.606.168.923s-.36.56-.68.645l-8.253 2.25 7.224 10.18c.18.253.23.575.136.87s-.322.53-.615.63L40.07 43.483c-.1.037-.207.058-.314.06zM33.427 30.1l6.757 11.268 19.692-6.894-6.878-9.695zM2.52 3.62l15.247 28.7 12.655-3.433L14.306 2.052zm45.25 10.366l6.052 8.534 7.527-2.047-6.55-8.155z" stroke="#fff" stroke-width="2" fill="#fff" fill-rule="nonzero"/></symbol></svg>